<mxfile host="app.diagrams.net" agent="Mozilla/5.0 (Macintosh; Intel Mac OS X 10_15_7) AppleWebKit/537.36 (KHTML, like Gecko) Chrome/135.0.0.0 Safari/537.36" version="26.2.14">
  <diagram name="第 1 页" id="up92wOCgfcbkaHru3PyY">
    <mxGraphModel dx="931" dy="518" grid="1" gridSize="10" guides="1" tooltips="1" connect="1" arrows="1" fold="1" page="1" pageScale="1" pageWidth="827" pageHeight="1169" math="1" shadow="0">
      <root>
        <mxCell id="0" />
        <mxCell id="1" parent="0" />
        <mxCell id="uKd757oSrtYZT0NXzU0E-2" value="" style="endArrow=classic;startArrow=classic;html=1;rounded=0;" edge="1" parent="1">
          <mxGeometry width="50" height="50" relative="1" as="geometry">
            <mxPoint x="120" y="880" as="sourcePoint" />
            <mxPoint x="120" y="600" as="targetPoint" />
          </mxGeometry>
        </mxCell>
        <mxCell id="uKd757oSrtYZT0NXzU0E-1" value="" style="endArrow=classic;startArrow=classic;html=1;rounded=0;" edge="1" parent="1">
          <mxGeometry width="50" height="50" relative="1" as="geometry">
            <mxPoint x="30" y="760" as="sourcePoint" />
            <mxPoint x="440" y="760" as="targetPoint" />
          </mxGeometry>
        </mxCell>
        <mxCell id="PG7lFqkMy5EGhb7JiHeg-1" style="rounded=0;orthogonalLoop=1;jettySize=auto;html=1;exitX=1;exitY=0;exitDx=0;exitDy=0;entryX=0;entryY=0.5;entryDx=0;entryDy=0;fillColor=#dae8fc;strokeColor=#6c8ebf;strokeWidth=2;fontFamily=Times New Roman;fontStyle=1" parent="1" source="PG7lFqkMy5EGhb7JiHeg-5" target="PG7lFqkMy5EGhb7JiHeg-10" edge="1">
          <mxGeometry relative="1" as="geometry" />
        </mxCell>
        <mxCell id="PG7lFqkMy5EGhb7JiHeg-2" style="rounded=0;orthogonalLoop=1;jettySize=auto;html=1;exitX=1;exitY=1;exitDx=0;exitDy=0;entryX=0;entryY=0.5;entryDx=0;entryDy=0;fillColor=#d5e8d4;strokeColor=#82b366;strokeWidth=2;fontFamily=Times New Roman;fontStyle=1" parent="1" source="PG7lFqkMy5EGhb7JiHeg-5" target="PG7lFqkMy5EGhb7JiHeg-7" edge="1">
          <mxGeometry relative="1" as="geometry" />
        </mxCell>
        <mxCell id="PG7lFqkMy5EGhb7JiHeg-3" style="edgeStyle=orthogonalEdgeStyle;rounded=0;orthogonalLoop=1;jettySize=auto;html=1;exitX=1;exitY=0.5;exitDx=0;exitDy=0;entryX=0;entryY=0.5;entryDx=0;entryDy=0;fillColor=#e1d5e7;strokeColor=#9673a6;strokeWidth=2;fontFamily=Times New Roman;fontStyle=1" parent="1" source="PG7lFqkMy5EGhb7JiHeg-5" target="PG7lFqkMy5EGhb7JiHeg-8" edge="1">
          <mxGeometry relative="1" as="geometry" />
        </mxCell>
        <mxCell id="PG7lFqkMy5EGhb7JiHeg-4" value="\(AB+AC=AD\)" style="edgeLabel;html=1;align=center;verticalAlign=middle;resizable=0;points=[];fontFamily=Times New Roman;fontStyle=1" parent="PG7lFqkMy5EGhb7JiHeg-3" vertex="1" connectable="0">
          <mxGeometry x="-0.1505" y="5" relative="1" as="geometry">
            <mxPoint as="offset" />
          </mxGeometry>
        </mxCell>
        <mxCell id="PG7lFqkMy5EGhb7JiHeg-5" value="A" style="ellipse;whiteSpace=wrap;html=1;aspect=fixed;fillColor=#ffe6cc;strokeColor=#d79b00;strokeWidth=3;fontFamily=Times New Roman;fontStyle=1" parent="1" vertex="1">
          <mxGeometry x="110" y="110" width="20" height="20" as="geometry" />
        </mxCell>
        <mxCell id="PG7lFqkMy5EGhb7JiHeg-6" style="rounded=0;orthogonalLoop=1;jettySize=auto;html=1;exitX=1;exitY=0.5;exitDx=0;exitDy=0;entryX=0;entryY=0.5;entryDx=0;entryDy=0;dashed=1;strokeWidth=2;fillColor=#f5f5f5;strokeColor=#666666;fontFamily=Times New Roman;fontStyle=1" parent="1" source="PG7lFqkMy5EGhb7JiHeg-7" target="PG7lFqkMy5EGhb7JiHeg-8" edge="1">
          <mxGeometry relative="1" as="geometry" />
        </mxCell>
        <mxCell id="PG7lFqkMy5EGhb7JiHeg-7" value="C" style="ellipse;whiteSpace=wrap;html=1;aspect=fixed;fillColor=#dae8fc;strokeColor=#6c8ebf;strokeWidth=3;fontFamily=Times New Roman;fontStyle=1" parent="1" vertex="1">
          <mxGeometry x="270" y="190" width="20" height="20" as="geometry" />
        </mxCell>
        <mxCell id="PG7lFqkMy5EGhb7JiHeg-8" value="D" style="ellipse;whiteSpace=wrap;html=1;aspect=fixed;fillColor=#f8cecc;strokeColor=#b85450;strokeWidth=3;fontFamily=Times New Roman;fontStyle=1" parent="1" vertex="1">
          <mxGeometry x="510" y="110" width="20" height="20" as="geometry" />
        </mxCell>
        <mxCell id="PG7lFqkMy5EGhb7JiHeg-9" style="rounded=0;orthogonalLoop=1;jettySize=auto;html=1;exitX=1;exitY=0.5;exitDx=0;exitDy=0;entryX=0;entryY=0;entryDx=0;entryDy=0;dashed=1;fillColor=#f5f5f5;strokeColor=#666666;strokeWidth=2;fontFamily=Times New Roman;fontStyle=1" parent="1" source="PG7lFqkMy5EGhb7JiHeg-10" target="PG7lFqkMy5EGhb7JiHeg-8" edge="1">
          <mxGeometry relative="1" as="geometry" />
        </mxCell>
        <mxCell id="PG7lFqkMy5EGhb7JiHeg-10" value="B" style="ellipse;whiteSpace=wrap;html=1;aspect=fixed;fillColor=#dae8fc;strokeColor=#6c8ebf;strokeWidth=3;fontFamily=Times New Roman;fontStyle=1" parent="1" vertex="1">
          <mxGeometry x="350" y="30" width="20" height="20" as="geometry" />
        </mxCell>
        <mxCell id="PG7lFqkMy5EGhb7JiHeg-11" style="rounded=0;orthogonalLoop=1;jettySize=auto;html=1;exitX=1;exitY=0;exitDx=0;exitDy=0;entryX=0;entryY=0.5;entryDx=0;entryDy=0;fillColor=#dae8fc;strokeColor=#6c8ebf;strokeWidth=2;fontFamily=Times New Roman;fontStyle=1;textShadow=0;" parent="1" source="PG7lFqkMy5EGhb7JiHeg-15" target="PG7lFqkMy5EGhb7JiHeg-20" edge="1">
          <mxGeometry relative="1" as="geometry" />
        </mxCell>
        <mxCell id="PG7lFqkMy5EGhb7JiHeg-12" style="rounded=0;orthogonalLoop=1;jettySize=auto;html=1;exitX=1;exitY=1;exitDx=0;exitDy=0;entryX=0;entryY=0.5;entryDx=0;entryDy=0;fillColor=#d5e8d4;strokeColor=#82b366;strokeWidth=2;fontFamily=Times New Roman;fontStyle=1;textShadow=0;" parent="1" source="PG7lFqkMy5EGhb7JiHeg-15" target="PG7lFqkMy5EGhb7JiHeg-17" edge="1">
          <mxGeometry relative="1" as="geometry" />
        </mxCell>
        <mxCell id="PG7lFqkMy5EGhb7JiHeg-15" value="A" style="ellipse;whiteSpace=wrap;html=1;aspect=fixed;fillColor=#ffe6cc;strokeColor=#d79b00;strokeWidth=3;fontFamily=Times New Roman;fontStyle=1;textShadow=0;" parent="1" vertex="1">
          <mxGeometry x="110" y="750" width="20" height="20" as="geometry" />
        </mxCell>
        <mxCell id="PG7lFqkMy5EGhb7JiHeg-17" value="C" style="ellipse;whiteSpace=wrap;html=1;aspect=fixed;fillColor=#dae8fc;strokeColor=#6c8ebf;strokeWidth=3;fontFamily=Times New Roman;fontStyle=1;textShadow=0;" parent="1" vertex="1">
          <mxGeometry x="270" y="830" width="20" height="20" as="geometry" />
        </mxCell>
        <mxCell id="PG7lFqkMy5EGhb7JiHeg-20" value="B" style="ellipse;whiteSpace=wrap;html=1;aspect=fixed;fillColor=#dae8fc;strokeColor=#6c8ebf;strokeWidth=3;fontFamily=Times New Roman;fontStyle=1" parent="1" vertex="1">
          <mxGeometry x="350" y="670" width="20" height="20" as="geometry" />
        </mxCell>
        <mxCell id="uKd757oSrtYZT0NXzU0E-3" value="\(x\)" style="text;html=1;align=center;verticalAlign=middle;whiteSpace=wrap;rounded=0;" vertex="1" parent="1">
          <mxGeometry x="100" y="585" width="60" height="30" as="geometry" />
        </mxCell>
        <mxCell id="uKd757oSrtYZT0NXzU0E-4" value="\(y\)" style="text;html=1;align=center;verticalAlign=middle;whiteSpace=wrap;rounded=0;" vertex="1" parent="1">
          <mxGeometry x="414" y="755" width="60" height="30" as="geometry" />
        </mxCell>
        <mxCell id="uKd757oSrtYZT0NXzU0E-5" value="\(\theta_2\)" style="text;html=1;align=center;verticalAlign=middle;whiteSpace=wrap;rounded=0;" vertex="1" parent="1">
          <mxGeometry x="170" y="770" width="60" height="30" as="geometry" />
        </mxCell>
        <mxCell id="uKd757oSrtYZT0NXzU0E-6" value="\(\theta_1\)" style="text;html=1;align=center;verticalAlign=middle;whiteSpace=wrap;rounded=0;" vertex="1" parent="1">
          <mxGeometry x="170" y="730" width="60" height="30" as="geometry" />
        </mxCell>
        <mxCell id="uKd757oSrtYZT0NXzU0E-7" value="" style="curved=1;endArrow=none;html=1;rounded=0;entryX=0;entryY=0.25;entryDx=0;entryDy=0;startFill=0;fillColor=#f5f5f5;strokeColor=#666666;strokeWidth=2;" edge="1" parent="1" target="uKd757oSrtYZT0NXzU0E-6">
          <mxGeometry width="50" height="50" relative="1" as="geometry">
            <mxPoint x="170" y="760" as="sourcePoint" />
            <mxPoint x="220" y="710" as="targetPoint" />
            <Array as="points">
              <mxPoint x="190" y="750" />
            </Array>
          </mxGeometry>
        </mxCell>
        <mxCell id="uKd757oSrtYZT0NXzU0E-9" value="" style="curved=1;endArrow=none;html=1;rounded=0;entryX=0;entryY=0.25;entryDx=0;entryDy=0;startFill=0;fillColor=#f5f5f5;strokeColor=#666666;strokeWidth=2;" edge="1" parent="1">
          <mxGeometry width="50" height="50" relative="1" as="geometry">
            <mxPoint x="160" y="784" as="sourcePoint" />
            <mxPoint x="167" y="762" as="targetPoint" />
            <Array as="points">
              <mxPoint x="187" y="774" />
            </Array>
          </mxGeometry>
        </mxCell>
        <mxCell id="uKd757oSrtYZT0NXzU0E-10" value="\(\bf \textcolor{red}{r_1}\)" style="text;html=1;align=center;verticalAlign=middle;whiteSpace=wrap;rounded=0;direction=east;" vertex="1" parent="1">
          <mxGeometry x="210" y="690" width="60" height="30" as="geometry" />
        </mxCell>
        <mxCell id="uKd757oSrtYZT0NXzU0E-12" value="\(\bf\textcolor{red}{r_2}\)" style="text;html=1;align=center;verticalAlign=middle;whiteSpace=wrap;rounded=0;direction=east;" vertex="1" parent="1">
          <mxGeometry x="180" y="810" width="60" height="30" as="geometry" />
        </mxCell>
        <mxCell id="uKd757oSrtYZT0NXzU0E-13" value="" style="endArrow=classic;startArrow=classic;html=1;rounded=0;" edge="1" parent="1">
          <mxGeometry width="50" height="50" relative="1" as="geometry">
            <mxPoint x="550" y="880" as="sourcePoint" />
            <mxPoint x="550" y="600" as="targetPoint" />
          </mxGeometry>
        </mxCell>
        <mxCell id="uKd757oSrtYZT0NXzU0E-14" value="" style="endArrow=classic;startArrow=classic;html=1;rounded=0;" edge="1" parent="1">
          <mxGeometry width="50" height="50" relative="1" as="geometry">
            <mxPoint x="460" y="760" as="sourcePoint" />
            <mxPoint x="870" y="760" as="targetPoint" />
          </mxGeometry>
        </mxCell>
        <mxCell id="uKd757oSrtYZT0NXzU0E-15" style="rounded=0;orthogonalLoop=1;jettySize=auto;html=1;exitX=1;exitY=0;exitDx=0;exitDy=0;entryX=0.25;entryY=0;entryDx=0;entryDy=0;fillColor=#dae8fc;strokeColor=#6c8ebf;strokeWidth=2;fontFamily=Times New Roman;fontStyle=1;textShadow=0;" edge="1" parent="1" source="uKd757oSrtYZT0NXzU0E-17" target="uKd757oSrtYZT0NXzU0E-23">
          <mxGeometry relative="1" as="geometry" />
        </mxCell>
        <mxCell id="uKd757oSrtYZT0NXzU0E-16" style="rounded=0;orthogonalLoop=1;jettySize=auto;html=1;exitX=1;exitY=1;exitDx=0;exitDy=0;entryX=0;entryY=0.5;entryDx=0;entryDy=0;fillColor=#d5e8d4;strokeColor=#82b366;strokeWidth=2;fontFamily=Times New Roman;fontStyle=1;textShadow=0;" edge="1" parent="1" source="uKd757oSrtYZT0NXzU0E-17" target="uKd757oSrtYZT0NXzU0E-18">
          <mxGeometry relative="1" as="geometry" />
        </mxCell>
        <mxCell id="uKd757oSrtYZT0NXzU0E-17" value="A" style="ellipse;whiteSpace=wrap;html=1;aspect=fixed;fillColor=#ffe6cc;strokeColor=#d79b00;strokeWidth=3;fontFamily=Times New Roman;fontStyle=1;textShadow=0;" vertex="1" parent="1">
          <mxGeometry x="540" y="750" width="20" height="20" as="geometry" />
        </mxCell>
        <mxCell id="uKd757oSrtYZT0NXzU0E-18" value="C" style="ellipse;whiteSpace=wrap;html=1;aspect=fixed;fillColor=#dae8fc;strokeColor=#6c8ebf;strokeWidth=3;fontFamily=Times New Roman;fontStyle=1;textShadow=0;" vertex="1" parent="1">
          <mxGeometry x="700" y="830" width="20" height="20" as="geometry" />
        </mxCell>
        <mxCell id="uKd757oSrtYZT0NXzU0E-19" value="B" style="ellipse;whiteSpace=wrap;html=1;aspect=fixed;fillColor=#dae8fc;strokeColor=#6c8ebf;strokeWidth=3;fontFamily=Times New Roman;fontStyle=1" vertex="1" parent="1">
          <mxGeometry x="610" y="720" width="20" height="20" as="geometry" />
        </mxCell>
        <mxCell id="uKd757oSrtYZT0NXzU0E-20" value="\(x\)" style="text;html=1;align=center;verticalAlign=middle;whiteSpace=wrap;rounded=0;" vertex="1" parent="1">
          <mxGeometry x="530" y="585" width="60" height="30" as="geometry" />
        </mxCell>
        <mxCell id="uKd757oSrtYZT0NXzU0E-21" value="\(y\)" style="text;html=1;align=center;verticalAlign=middle;whiteSpace=wrap;rounded=0;" vertex="1" parent="1">
          <mxGeometry x="844" y="755" width="60" height="30" as="geometry" />
        </mxCell>
        <mxCell id="uKd757oSrtYZT0NXzU0E-22" value="\(\theta_2\)" style="text;html=1;align=center;verticalAlign=middle;whiteSpace=wrap;rounded=0;" vertex="1" parent="1">
          <mxGeometry x="600" y="770" width="60" height="30" as="geometry" />
        </mxCell>
        <mxCell id="uKd757oSrtYZT0NXzU0E-23" value="\(\theta_1\)" style="text;html=1;align=center;verticalAlign=middle;whiteSpace=wrap;rounded=0;" vertex="1" parent="1">
          <mxGeometry x="600" y="730" width="60" height="30" as="geometry" />
        </mxCell>
        <mxCell id="uKd757oSrtYZT0NXzU0E-24" value="" style="curved=1;endArrow=none;html=1;rounded=0;entryX=0;entryY=0.25;entryDx=0;entryDy=0;startFill=0;fillColor=#f5f5f5;strokeColor=#666666;strokeWidth=2;" edge="1" parent="1" target="uKd757oSrtYZT0NXzU0E-23">
          <mxGeometry width="50" height="50" relative="1" as="geometry">
            <mxPoint x="600" y="760" as="sourcePoint" />
            <mxPoint x="650" y="710" as="targetPoint" />
            <Array as="points">
              <mxPoint x="620" y="750" />
            </Array>
          </mxGeometry>
        </mxCell>
        <mxCell id="uKd757oSrtYZT0NXzU0E-25" value="" style="curved=1;endArrow=none;html=1;rounded=0;entryX=0;entryY=0.25;entryDx=0;entryDy=0;startFill=0;fillColor=#f5f5f5;strokeColor=#666666;strokeWidth=2;" edge="1" parent="1">
          <mxGeometry width="50" height="50" relative="1" as="geometry">
            <mxPoint x="590" y="784" as="sourcePoint" />
            <mxPoint x="597" y="762" as="targetPoint" />
            <Array as="points">
              <mxPoint x="617" y="774" />
            </Array>
          </mxGeometry>
        </mxCell>
        <mxCell id="uKd757oSrtYZT0NXzU0E-26" value="\(\bf \textcolor{red}1\)" style="text;html=1;align=center;verticalAlign=middle;whiteSpace=wrap;rounded=0;direction=east;" vertex="1" parent="1">
          <mxGeometry x="550" y="715" width="60" height="30" as="geometry" />
        </mxCell>
        <mxCell id="uKd757oSrtYZT0NXzU0E-27" value="\(\bf\textcolor{red}{r_2}\)" style="text;html=1;align=center;verticalAlign=middle;whiteSpace=wrap;rounded=0;direction=east;" vertex="1" parent="1">
          <mxGeometry x="610" y="810" width="60" height="30" as="geometry" />
        </mxCell>
      </root>
    </mxGraphModel>
  </diagram>
</mxfile>
